<svg xmlns="http://www.w3.org/2000/svg">
  <symbol id="arrow" width="24" height="40" viewBox="0 0 24 40" fill="none">
    <path id="Vector 1" d="M19 34L6.91422 21.9142C6.13317 21.1332 6.13317 19.8668 6.91421 19.0858L19 7" stroke="black" stroke-width="2" stroke-linecap="round"/>
  </symbol>
  <symbol id="stain" width="397" height="379" viewBox="0 0 397 379" fill="none">
    <path d="M260.495 23.9363C239.952 -9.62469 178.646 -0.701744 150.56 7.95485C61.4442 40.764 -25.4685 141.288 6.92245 276.642C18.1567 323.588 62.2911 315.597 108.03 315.597C153.77 315.597 133.607 335.038 197 368C260.393 400.962 296.483 343.98 335 327C373.517 310.02 398.407 256.931 396 198C393.593 139.069 357.9 108.979 325 91C292.1 73.0209 286.173 65.8875 260.495 23.9363Z" fill="#ECECEC"/>
  </symbol>
  <symbol id="arrows" width="38" height="38" viewBox="0 0 38 38" fill="black">
    <g id="arrows 1" clip-path="url(#clip0_142_888)">
      <g id="Group">
        <path id="Vector" d="M18.2132 0.326128L11.5439 6.99543C11.1091 7.43012 11.1091 8.13505 11.5439 8.56983L14.693 11.7189C14.9565 11.9824 15.3191 12.0865 15.6606 12.0304V15.6602H12.0307C12.088 15.3124 11.9769 14.9502 11.7194 14.6927L8.57027 11.5436C8.13587 11.1091 7.43056 11.1088 6.99586 11.5436L0.326568 18.2128C-0.108205 18.6475 -0.108205 19.3525 0.326568 19.7873L6.99586 26.4566C7.43027 26.891 8.13557 26.8913 8.57027 26.4566L11.7194 23.3074C11.9771 23.0497 12.0879 22.6874 12.0307 22.3399H15.6605V25.9697C15.3191 25.9136 14.9563 26.0177 14.6929 26.2811L11.5438 29.4302C11.1091 29.8649 11.1091 30.5698 11.5438 31.0046L18.2131 37.6739C18.6479 38.1087 19.3528 38.1087 19.7875 37.6739L26.4568 31.0046C26.8912 30.5701 26.8916 29.8649 26.4568 29.4302L23.3077 26.2811C23.0443 26.0177 22.6816 25.9136 22.3402 25.9697V22.3399H25.9701C25.9128 22.6878 26.0239 23.05 26.2815 23.3074L29.4306 26.4566C29.865 26.8911 30.5703 26.8914 31.005 26.4566L37.6743 19.7873C38.109 19.3526 38.109 18.6477 37.6743 18.2129L31.005 11.5436C30.5706 11.1091 29.8653 11.1089 29.4306 11.5436L26.2815 14.6928C26.0237 14.9505 25.9129 15.3128 25.9701 15.6603H22.3402V12.0305C22.6816 12.0865 23.0443 11.9825 23.3077 11.7191L26.4568 8.56998C26.8914 8.1355 26.8915 7.43035 26.4568 6.99557L19.7875 0.326276C19.3528 -0.108571 18.6479 -0.108571 18.2132 0.326128ZM22.5206 9.35736L22.0142 8.85097C21.3157 8.15235 20.1137 8.64694 20.1137 9.63813V16.7735C20.1137 17.3884 20.6121 17.8868 21.2269 17.8868H28.3623C29.3507 17.8868 29.8502 16.687 29.1495 15.9864L28.6431 15.48L30.2178 13.9052L35.3127 19.0001L30.2179 24.0951L28.6432 22.5203L29.1496 22.0139C29.8484 21.315 29.3532 20.1134 28.3623 20.1134H21.2269C20.6121 20.1134 20.1137 20.6118 20.1137 21.2267V28.362C20.1137 29.3538 21.3162 29.8474 22.0141 29.1492L22.5205 28.6428L24.0952 30.2175L19.0004 35.3124L13.9056 30.2174L15.4802 28.6427L15.9867 29.1491C16.6853 29.848 17.8871 29.3529 17.8871 28.362V21.2267C17.8871 20.6118 17.3886 20.1134 16.7738 20.1134H9.63842C8.65005 20.1134 8.15056 21.3132 8.85126 22.0138L9.35765 22.5202L7.78295 24.095L2.68806 19.0001L7.78288 13.9051L9.35758 15.4799L8.85118 15.9863C8.15234 16.6852 8.64753 17.8868 9.63842 17.8868H16.7738C17.3886 17.8868 17.8871 17.3884 17.8871 16.7735V9.63813C17.8871 8.65021 16.6874 8.1502 15.9867 8.85097L15.4802 9.35736L13.9056 7.78266L19.0004 2.68769L24.0952 7.78266L22.5206 9.35736Z" fill="white"/>
      </g>
    </g>
    <defs>
      <clipPath id="clip0_142_888">
      <rect width="38" height="38" fill="white"/>
      </clipPath>
    </defs>
  </symbol>
  <symbol id="length" y='7'>
    <path d="M7.00642 4.09528L7.00723 0L0 7.00964L7.00723 14.0185L7.00642 9.9232L16.992 9.92481V14.0185L24 7.00964L16.992 0V4.09528H7.00642Z" fill="#010002"/>
  </symbol>
  <symbol id="width">
    <path d="M8.4085 15.4797L5.51327 12.5833L5.51498 22.4948L15.4258 22.4959L12.5295 19.6007L19.5914 12.541L22.4861 15.4356L22.4855 5.52421L12.5735 5.52307L15.4693 8.41887L8.4085 15.4797Z" fill="#010002"/>
  </symbol>
  <symbol id="thickness">
    <path d="M22.5938 5.48438H1.45312C0.6765 5.48438 0.046875 6.114 0.046875 6.89062C0.046875 7.66725 0.6765 8.29688 1.45312 8.29688H22.5938C23.3704 8.29688 24 7.66725 24 6.89062C24 6.114 23.3704 5.48438 22.5938 5.48438Z" fill="black"/>
    <path d="M23.0625 0H0.9375C0.419719 0 0 0.419719 0 0.9375C0 1.45528 0.419719 1.875 0.9375 1.875H23.0625C23.5803 1.875 24 1.45528 24 0.9375C24 0.419719 23.5803 0 23.0625 0Z" fill="black"/>
    <path d="M21.6562 19.3125H2.39062C1.09622 19.3125 0.046875 20.3618 0.046875 21.6562C0.046875 22.9507 1.09622 24 2.39062 24H21.6562C22.9507 24 24 22.9507 24 21.6562C24 20.3618 22.9507 19.3125 21.6562 19.3125Z" fill="black"/>
    <path d="M22.125 11.9062H1.92188C0.886359 11.9062 0.046875 12.7457 0.046875 13.7812C0.046875 14.8168 0.886359 15.6562 1.92188 15.6562H22.125C23.1605 15.6562 24 14.8168 24 13.7812C24 12.7457 23.1605 11.9062 22.125 11.9062Z" fill="black"/>
  </symbol>
  <symbol id="life-time" x='-5'>
    <path d="M24 26H23V22.727C23 21.099 22.307 19.541 21.097 18.453L19.404 16.93C19.137 16.689 18.99 16.359 18.99 16C18.99 15.641 19.137 15.311 19.404 15.071L21.097 13.548C22.307 12.458 23 10.901 23 9.273V6H24C24.553 6 25 5.552 25 5C25 4.448 24.553 4 24 4H8C7.447 4 7 4.448 7 5C7 5.552 7.447 6 8 6H9V9.273C9 10.901 9.693 12.459 10.903 13.547L12.596 15.07C12.863 15.311 13.01 15.641 13.01 16C13.01 16.359 12.863 16.689 12.596 16.929L10.903 18.452C9.693 19.542 9 21.099 9 22.727V26H8C7.447 26 7 26.448 7 27C7 27.552 7.447 28 8 28H24C24.553 28 25 27.552 25 27C25 26.448 24.553 26 24 26ZM12 22.829C12 22.094 12.286 21.404 12.806 20.884L15.47 18.22C15.763 17.927 16.238 17.927 16.531 18.22L19.195 20.884C19.715 21.404 20.001 22.094 20.001 22.829V26H12V22.829Z" fill="black"/>
  </symbol>
  <symbol id="life-time">
    <path d="M24 26H23V22.727C23 21.099 22.307 19.541 21.097 18.453L19.404 16.93C19.137 16.689 18.99 16.359 18.99 16C18.99 15.641 19.137 15.311 19.404 15.071L21.097 13.548C22.307 12.458 23 10.901 23 9.273V6H24C24.553 6 25 5.552 25 5C25 4.448 24.553 4 24 4H8C7.447 4 7 4.448 7 5C7 5.552 7.447 6 8 6H9V9.273C9 10.901 9.693 12.459 10.903 13.547L12.596 15.07C12.863 15.311 13.01 15.641 13.01 16C13.01 16.359 12.863 16.689 12.596 16.929L10.903 18.452C9.693 19.542 9 21.099 9 22.727V26H8C7.447 26 7 26.448 7 27C7 27.552 7.447 28 8 28H24C24.553 28 25 27.552 25 27C25 26.448 24.553 26 24 26ZM12 22.829C12 22.094 12.286 21.404 12.806 20.884L15.47 18.22C15.763 17.927 16.238 17.927 16.531 18.22L19.195 20.884C19.715 21.404 20.001 22.094 20.001 22.829V26H12V22.829Z" fill="black"/>
  </symbol>
  <symbol id="weight">
    <path d="M22.983 21.137L20.8878 8.62074C20.6908 7.4406 19.6687 6.57811 18.4724 6.57811H15.3245C15.6937 5.93501 15.9047 5.19002 15.9047 4.39667C15.9047 1.97245 13.9328 0 11.5081 0C9.08383 0 7.11138 1.97245 7.11138 4.39667C7.11138 5.19002 7.32246 5.93501 7.69158 6.57811H4.54367C3.34689 6.57811 2.32532 7.44164 2.12828 8.62178L0.0336613 21.1396C-0.0853925 21.8492 0.114764 22.5797 0.580061 23.1287C1.04588 23.6782 1.72901 24 2.44957 24H20.5686C21.2892 24 21.9723 23.6782 22.4381 23.1287C22.9029 22.5786 23.1025 21.8472 22.983 21.137ZM11.5086 2.56148C12.5203 2.56148 13.3438 3.38498 13.3438 4.39719C13.3438 5.40941 12.5203 6.23239 11.5086 6.23239C10.4964 6.23239 9.67286 5.40889 9.67286 4.39667C9.67286 3.38446 10.4964 2.56148 11.5086 2.56148Z" fill="black"/>
  </symbol>
</svg>