<svg xmlns="http://www.w3.org/2000/svg">
  <symbol id="advantages-1" viewBox="0 0 44 68">
    <path d="M41.8359 60.0312H35.8594V55.7812H38.5223C39.6225 55.7812 40.5145 54.8893 40.5145 53.7891C40.5145 52.6888 39.6225 51.7969 38.5223 51.7969H35.8594V47.8125H41.1785C42.2787 47.8125 43.1707 46.9205 43.1707 45.8203C43.1707 44.7201 42.2787 43.8281 41.1785 43.8281H35.8594V39.8438H38.5223C39.6225 39.8438 40.5145 38.9518 40.5145 37.8516C40.5145 36.7513 39.6225 35.8594 38.5223 35.8594H35.8594V31.875H41.1785C42.2787 31.875 43.1707 30.983 43.1707 29.8828C43.1707 28.7826 42.2787 27.8906 41.1785 27.8906H35.8594V23.9062H38.5223C39.6225 23.9062 40.5145 23.0143 40.5145 21.9141C40.5145 20.8138 39.6225 19.9219 38.5223 19.9219H35.8594V15.9375H41.1785C42.2787 15.9375 43.1707 15.0455 43.1707 13.9453C43.1707 12.8451 42.2787 11.9531 41.1785 11.9531H35.8594V7.96875H38.5223C39.6225 7.96875 40.5145 7.07678 40.5145 5.97656C40.5145 4.87634 39.6225 3.98438 38.5223 3.98438H35.8594V1.99219C35.8594 0.891969 34.9674 0 33.8672 0C32.767 0 31.875 0.891969 31.875 1.99219V60.0312H24.6821L25.7778 42.5H25.9051C27.0053 42.5 27.8973 41.608 27.8973 40.5078V27.2232C27.8973 22.8007 24.9982 19.0441 21.0014 17.7493C22.7475 16.7048 23.9195 14.7956 23.9195 12.6172C23.9195 9.32171 21.2384 6.64062 17.943 6.64062C14.6475 6.64062 11.9664 9.32171 11.9664 12.6172C11.9664 14.7946 13.1373 16.703 14.882 17.7479C10.8831 19.0415 7.98203 22.7991 7.98203 27.2232V40.5078C7.98203 41.608 8.874 42.5 9.97422 42.5H10.0948L11.1905 60.0312H1.99219C0.891969 60.0312 0 60.9232 0 62.0234V66.0078C0 67.108 0.891969 68 1.99219 68C3.09241 68 3.98438 67.108 3.98438 66.0078V64.0156H39.8438V66.0078C39.8438 67.108 40.7357 68 41.8359 68C42.9362 68 43.8281 67.108 43.8281 66.0078V62.0234C43.8281 60.9232 42.9362 60.0312 41.8359 60.0312ZM17.943 10.625C19.0415 10.625 19.9352 11.5187 19.9352 12.6172C19.9352 13.7157 19.0415 14.6094 17.943 14.6094C16.8445 14.6094 15.9508 13.7157 15.9508 12.6172C15.9508 11.5187 16.8443 10.625 17.943 10.625ZM11.9664 27.2232C11.9664 23.9296 14.646 21.25 17.9398 21.25C21.2334 21.25 23.913 23.9296 23.913 27.2232V38.5156H11.9664V27.2232ZM14.0869 42.5H21.7856L20.6899 60.0312H15.1826L14.0869 42.5Z" fill="black"/>
  </symbol>
  <symbol id="advantages-2" viewBox="0 0 64 64">
    <path d="M33.875 30.1811V19.8166H38.025C47.9181 19.8166 55.9666 11.768 55.9666 1.875C55.9666 0.8395 55.1271 0 54.0916 0H48.0646C41.0369 0 34.9411 4.06275 31.9996 9.96225C29.0576 4.06262 22.9615 0 15.9334 0H9.90837C8.87288 0 8.03337 0.8395 8.03337 1.875C8.03337 11.7681 16.082 19.8166 25.975 19.8166H30.125V30.1811C13.3249 31.1521 0 45.0815 0 62.125C0 63.1605 0.8395 64 1.875 64H62.125C63.1605 64 64 63.1605 64 62.125C64 45.0815 50.6751 31.1521 33.875 30.1811ZM48.0646 3.75H52.0933C51.1726 10.692 45.2145 16.0666 38.025 16.0666H33.9981C34.9174 9.12425 40.8751 3.75 48.0646 3.75ZM25.975 16.0666C18.7854 16.0666 12.8272 10.692 11.9067 3.75H15.9334C23.123 3.75 29.0811 9.12463 30.0016 16.0666H25.975ZM3.8105 60.25C4.7385 45.9209 15.2449 38.245 22.0917 35.6657V40.3778C22.0917 40.9499 21.8689 41.4879 21.4641 41.8926L15.4391 47.9176C13.1423 50.2145 13.1423 53.9519 15.4391 56.2487L19.44 60.25H3.8105ZM24.7434 60.25L18.0906 53.5973C17.2543 52.7609 17.2534 51.4065 18.0906 50.5692L24.1156 44.5444C25.2288 43.4314 25.8417 41.9516 25.8417 40.3778V34.5489C27.8536 34.1014 29.9191 33.875 32 33.875C36.9144 33.875 41.6772 35.1336 45.9062 37.5337L35.5223 47.9178C33.2226 50.2174 33.2178 53.9449 35.5223 56.2489L39.5234 60.25H24.7434ZM44.8266 60.25L38.1739 53.5971C37.3382 52.7616 37.3371 51.4062 38.1739 50.5692L49.1001 39.6431C55.6121 44.6034 59.6477 52.1131 60.1879 60.2499H44.8266V60.25Z" fill="black"/>
  </symbol>
  <symbol id="advantages-3" viewBox="0 0 68 68">
    <path d="M67.58 64.7842C67.4752 64.6494 64.9503 61.4478 59.6006 58.2906C56.9903 56.75 53.3914 55.0512 48.7861 53.8092C49.7611 50.514 50.8711 45.7687 51.3499 40.1027C51.8914 33.6964 51.5072 27.4363 50.2076 21.4964C48.5791 14.0532 45.5041 7.10361 41.0679 0.840703C40.6944 0.313437 40.0884 0 39.4422 0C38.7961 0 38.1901 0.313305 37.8166 0.840703C36.4181 2.81509 35.155 4.85802 34.0297 6.96283C32.9044 4.85788 31.6415 2.81509 30.2428 0.840703C29.8694 0.313437 29.2633 0 28.6172 0C27.9711 0 27.3651 0.313305 26.9916 0.840703C22.5554 7.10348 19.4804 14.053 17.8518 21.4965C16.5523 27.4364 16.168 33.6964 16.7095 40.1029C17.2019 45.9283 18.3614 50.7807 19.3554 54.0843C15.1095 55.2884 11.6855 56.8436 9.12061 58.2632C3.46718 61.3926 0.622734 64.5502 0.504398 64.683C-0.0175553 65.2692 -0.146649 66.1072 0.174492 66.8232C0.495632 67.5391 1.20737 68 1.99216 68H66.0078C66.7688 68 67.4633 67.5664 67.7976 66.8828C68.1317 66.1992 68.0474 65.3849 67.58 64.7842ZM20.9628 26.9581L34.3264 17.8771C34.7222 19.1401 35.0719 20.4201 35.3722 21.7176L20.5296 31.8038C20.6034 30.2441 20.7425 28.6243 20.9628 26.9581ZM21.9738 21.4539C23.1906 16.3163 25.2642 10.9068 28.6188 5.57441C30.3273 8.279 31.7667 11.0904 32.9405 14.0015L21.9738 21.4539ZM20.4961 36.6438L36.179 25.9865C36.8241 30.3597 36.9548 34.9112 36.5666 39.6274C36.1538 44.6411 35.1975 48.9293 34.323 52.0159C30.2386 52.0394 26.5399 52.4701 23.2384 53.1424C22.2965 50.0504 21.1538 45.3767 20.6797 39.7673C20.5957 38.7749 20.5323 37.7314 20.4961 36.6438ZM34.6735 55.9971C45.4742 55.9971 52.9886 59.0514 57.3905 61.6136C58.8019 62.4352 59.9934 63.2602 60.9717 64.0156H7.43402C12.1776 60.6701 21.2129 55.9971 34.6735 55.9971ZM39.444 5.57441C45.7576 15.5693 48.4302 27.0098 47.3915 39.6274C46.9364 45.1541 45.8212 49.7995 44.8829 52.9247C42.8862 52.5547 40.7358 52.2795 38.4326 52.133C39.2726 48.9847 40.1222 44.8692 40.5251 40.1029C41.0665 33.6965 40.6823 27.4364 39.3827 21.4965C38.6317 18.0636 37.5721 14.7359 36.214 11.532C37.1285 9.54749 38.1975 7.55557 39.444 5.57441Z" fill="black"/>
  </symbol>
  <symbol id="advantages-divider" viewBox="0 0 67 21">
    <path id="Combined shape 2204" fill-rule="evenodd" clip-rule="evenodd" d="M33.4998 -0.000976562C39.2989 -0.000976562 43.9998 4.70002 43.9998 10.4991C43.9998 16.2982 39.2989 20.9992 33.4998 20.9992C27.7009 20.9992 22.9999 16.2982 22.9999 10.4991C22.9999 4.70002 27.7009 -0.000976562 33.4998 -0.000976562ZM60.4999 3.99937C64.0897 3.99937 66.9999 6.90937 66.9999 10.4991C66.9999 14.0893 64.0897 16.9996 60.4999 16.9996C56.91 16.9996 53.9998 14.0893 53.9998 10.4991C53.9998 6.90937 56.91 3.99937 60.4999 3.99937ZM12.9999 10.4991C12.9999 6.90937 10.0897 3.99937 6.49994 3.99937C2.90999 3.99937 -0.00012207 6.90937 -0.00012207 10.4991C-0.00012207 14.0893 2.90999 16.9996 6.49994 16.9996C10.0897 16.9996 12.9999 14.0893 12.9999 10.4991Z" fill="#F2F5F4"/>
  </symbol>
  <symbol id="benefits-1" viewBox="0 0 35 35">
    <path d="M34.5485 0.451516C34.3352 0.238139 34.0379 0.130367 33.7376 0.15814C33.6123 0.16952 30.6209 0.454022 26.5183 1.83108C13.1663 5.94322 4.32974 18.8899 0.220651 28.2558C-0.0379964 28.8743 0.484582 29.7021 1.26676 29.6337L5.80535 29.1922L5.36386 33.7304C5.31549 34.3828 5.94883 35.0699 6.74184 34.7764C23.0466 27.3472 32.9919 15.976 34.8419 1.26228C34.8694 0.961858 34.7619 0.664757 34.5485 0.451516ZM21.4105 22.7881C19.6089 24.4277 17.8329 25.8372 16.1913 27.0245V9.72113C17.9122 8.31082 19.6957 7.16773 21.4105 6.24486V22.7881ZM11.4936 30.0991C9.88016 31.0471 8.5183 31.7389 7.55511 32.1956L7.94776 28.1597C8.00602 27.6346 7.52022 26.9703 6.83797 27.05L2.8034 27.4424C4.16641 24.5507 7.83733 17.8176 14.159 11.5514V28.4322C13.1849 29.0781 12.286 29.6336 11.4936 30.0991ZM31.2232 7.89084C30.0298 11.4275 27.7123 16.5335 23.4428 20.8442V5.2325C26.2239 3.88932 30.4729 2.68533 32.6337 2.36608C32.4266 3.57955 32.0109 5.55616 31.2232 7.89084Z" fill="white"/>
  </symbol>
  <symbol id="benefits-2" viewBox="0 0 35 35">
    <path d="M33.8298 12.4181H26.5562C26.5569 12.4117 26.5579 12.4054 26.5586 12.3991C27.405 11.6708 28.0815 10.8061 28.5729 9.82357C28.7304 9.50849 28.7136 9.13433 28.5284 8.8347C28.3432 8.53501 28.016 8.3526 27.6638 8.3526H26.0949C25.7545 7.38962 25.2576 6.50036 24.6109 5.69742C24.6938 4.58516 24.5607 3.4969 24.2137 2.45599C24.1023 2.12181 23.8258 1.86914 23.483 1.78823C23.1401 1.70726 22.7799 1.80971 22.5308 2.05872L21.4191 3.17037C20.5006 2.73129 19.5227 2.45416 18.4992 2.34311C17.7321 1.43955 16.848 0.724357 15.9218 0.261161C15.6067 0.103623 15.2326 0.120427 14.9328 0.30561C14.6333 0.490794 14.4509 0.817932 14.4509 1.17021V2.80684C13.4879 3.14719 12.5986 3.6442 11.7957 4.29082C10.6836 4.20795 9.59509 4.3411 8.55439 4.68809C8.22021 4.79948 7.96754 5.07601 7.88663 5.4188C7.80573 5.76159 7.90804 6.12192 8.15712 6.37094L9.26857 7.48245C8.82922 8.40159 8.55195 9.38016 8.4411 10.4045C7.76013 10.9905 7.18933 11.665 6.73623 12.4182H1.17022C0.608905 12.4182 0.153839 12.8732 0.153839 13.4345V17.5001C0.153839 18.0614 0.608905 18.5164 1.17022 18.5164H2.25435V33.8298C2.25435 34.3911 2.70942 34.8462 3.27073 34.8462H7.33623C7.89754 34.8462 8.35261 34.3911 8.35261 33.8298V30.3847L17.5 26.7258L26.6474 30.3847V33.8298C26.6474 34.3911 27.1024 34.8461 27.6638 34.8461H31.7293C32.2906 34.8461 32.7456 34.3911 32.7456 33.8298V18.5164H33.8298C34.3911 18.5164 34.8461 18.0613 34.8461 17.5V13.4345C34.8461 12.8732 34.3911 12.4181 33.8298 12.4181V12.4181ZM10.0399 11.7226C10.2717 11.5431 10.4147 11.2723 10.4322 10.9796C10.5 9.84511 10.8237 8.77921 11.3944 7.81155C11.6298 7.41232 11.5652 6.90433 11.2376 6.57658L10.9639 6.30291C11.3037 6.29247 11.6479 6.30921 11.9952 6.35318C12.286 6.39004 12.5787 6.29952 12.798 6.10471C13.6472 5.35029 14.631 4.82455 15.722 4.542C16.1704 4.426 16.4836 4.02141 16.4836 3.55822V3.15607C16.7255 3.39404 16.9585 3.65687 17.179 3.94173C17.3585 4.17353 17.6293 4.3165 17.922 4.33398C19.0564 4.40174 20.1223 4.72549 21.0901 5.29615C21.4894 5.53155 21.9973 5.46704 22.325 5.13936L22.5988 4.86562C22.6092 5.20542 22.5925 5.5497 22.5485 5.89697C22.5117 6.18785 22.6022 6.4805 22.797 6.69977C23.5514 7.54905 24.0772 8.53284 24.3597 9.62382C24.4758 10.0722 24.8804 10.3854 25.3436 10.3854H25.7272C25.4937 10.6338 25.2377 10.8659 24.9602 11.0808C24.7284 11.2603 24.5854 11.5311 24.5679 11.8238C24.556 12.023 24.5354 12.2214 24.5072 12.4182H20.3743C20.4871 12.1 20.5491 11.7581 20.5491 11.4018C20.5491 9.72051 19.1813 8.35267 17.5 8.35267C15.8187 8.35267 14.4509 9.72051 14.4509 11.4018C14.4509 11.7581 14.5129 12.1 14.6257 12.4182H9.27331C9.50687 12.1698 9.76239 11.9375 10.0399 11.7226ZM18.5164 11.4017C18.5164 11.9622 18.0604 12.4181 17.5 12.4181C16.9396 12.4181 16.4836 11.9622 16.4836 11.4017C16.4836 10.8413 16.9396 10.3854 17.5 10.3854C18.0604 10.3854 18.5164 10.8413 18.5164 11.4017ZM6.31985 32.8134H4.2871V18.5164H6.31985C6.31985 18.5094 6.31992 28.5516 6.31985 32.8134ZM8.35261 28.1953V23.0667L14.7633 25.631L8.35261 28.1953ZM26.6474 28.1953L20.2367 25.631L26.6474 23.0667V28.1953ZM26.6474 20.8774L17.5 24.5364L8.35261 20.8774V18.5164H26.6474V20.8774ZM30.7129 32.8134H28.6801C28.6801 31.0105 28.6801 20.6905 28.6801 18.5164H30.7129V32.8134ZM32.8134 16.4836H2.18659V14.4509H32.8134V16.4836Z" fill="white"/>
  </symbol>
  <symbol id="benefits-3" viewBox="0 0 35 25">
    <path d="M26.3553 15.9785C23.944 15.9785 21.9823 17.9402 21.9823 20.3515C21.9823 22.7628 23.944 24.7245 26.3553 24.7245C28.767 24.7245 30.7283 22.7628 30.7283 20.3515C30.7283 17.9402 28.7666 15.9785 26.3553 15.9785ZM26.3553 22.538C25.1495 22.538 24.1688 21.5573 24.1688 20.3515C24.1688 19.1456 25.1495 18.165 26.3553 18.165C27.5611 18.165 28.5418 19.1456 28.5418 20.3515C28.5418 21.5574 27.5611 22.538 26.3553 22.538Z" fill="white"/>
    <path d="M11.4143 15.9785C9.00296 15.9785 7.04129 17.9402 7.04129 20.3515C7.04129 22.7628 9.00296 24.7245 11.4143 24.7245C13.8256 24.7245 15.7873 22.7628 15.7873 20.3515C15.7873 17.9402 13.8256 15.9785 11.4143 15.9785ZM11.4143 22.538C10.2085 22.538 9.22778 21.5573 9.22778 20.3515C9.22778 19.1456 10.2085 18.165 11.4143 18.165C12.6198 18.165 13.6008 19.1456 13.6008 20.3515C13.6008 21.5574 12.6201 22.538 11.4143 22.538Z" fill="white"/>
    <path d="M29.3001 3.4616C29.1143 3.09245 28.7364 2.85956 28.3231 2.85956H22.5654V5.04606H27.6489L30.6258 10.9671L32.5798 9.98456L29.3001 3.4616Z" fill="white"/>
    <path d="M23.0756 19.2947H14.8034V21.4812H23.0756V19.2947Z" fill="white"/>
    <path d="M8.1345 19.2947H4.34464C3.74078 19.2947 3.25143 19.7841 3.25143 20.3879C3.25143 20.9918 3.74084 21.4811 4.34464 21.4811H8.13457C8.73843 21.4811 9.22779 20.9917 9.22779 20.3879C9.22779 19.7841 8.73837 19.2947 8.1345 19.2947Z" fill="white"/>
    <path d="M34.6166 12.6113L32.4662 9.84173C32.2596 9.57497 31.9407 9.41898 31.6029 9.41898H23.6586V1.76628C23.6586 1.16242 23.1692 0.673065 22.5654 0.673065H4.34464C3.74078 0.673065 3.25143 1.16248 3.25143 1.76628C3.25143 2.37007 3.74084 2.85949 4.34464 2.85949H21.4721V10.5122C21.4721 11.1161 21.9616 11.6054 22.5654 11.6054H31.0675L32.6597 13.6563V19.2946H29.635C29.0311 19.2946 28.5418 19.784 28.5418 20.3878C28.5418 20.9917 29.0312 21.481 29.635 21.481H33.7529C34.3567 21.481 34.8461 20.9916 34.8462 20.3878V13.2818C34.8462 13.0391 34.7653 12.803 34.6166 12.6113Z" fill="white"/>
    <path d="M8.06166 13.7556H3.0327C2.42884 13.7556 1.93949 14.245 1.93949 14.8488C1.93949 15.4527 2.42891 15.942 3.0327 15.942H8.0616C8.66546 15.942 9.15481 15.4526 9.15481 14.8488C9.15488 14.245 8.66546 13.7556 8.06166 13.7556Z" fill="white"/>
    <path d="M10.5761 9.45544H1.24706C0.643266 9.45544 0.153847 9.94486 0.153847 10.5487C0.153847 11.1526 0.643266 11.6419 1.24706 11.6419H10.5761C11.18 11.6419 11.6693 11.1525 11.6693 10.5487C11.6693 9.94493 11.18 9.45544 10.5761 9.45544Z" fill="white"/>
    <path d="M12.3617 5.15536H3.0327C2.42884 5.15536 1.93949 5.64478 1.93949 6.24857C1.93949 6.85244 2.42891 7.34179 3.0327 7.34179H12.3617C12.9656 7.34179 13.455 6.85237 13.455 6.24857C13.455 5.64478 12.9656 5.15536 12.3617 5.15536Z" fill="white"/>
  </symbol>
  <symbol id="phone" viewBox="0 0 13 15">
      <path d="M12.669 13.1545C12.4344 13.6557 11.9652 13.9063 11.4959 14.1569C10.9094 14.5327 10.4402 14.658 9.85367 14.658C9.03253 14.658 8.21139 14.2822 7.50756 14.0316C6.92103 13.781 6.45181 13.5304 5.86528 13.2798C4.223 12.1522 2.34611 10.1474 1.40767 8.51861C1.05575 7.89214 0.821139 7.39096 0.586528 6.76449C0.351917 5.88743 0 5.13567 0 4.13331C0 3.50684 0.117306 2.88037 0.469222 2.25389C0.703833 1.75272 0.938445 1.25154 1.40767 1.00095C1.75958 1.00095 2.34611 0.875656 2.69803 0.875656C2.81533 0.875656 2.81533 0.875656 2.93264 0.875656C3.16725 1.00095 3.28456 1.37683 3.40186 1.62742C3.63647 2.25389 3.98839 2.75507 4.223 3.38154C4.45761 3.63213 4.69222 3.88272 4.69222 4.13331C4.69222 4.75978 3.04994 5.63684 3.04994 6.13802C3.04994 6.38861 3.28456 6.76449 3.40186 7.01508C4.34031 8.7692 5.51336 10.0221 7.15564 11.0245C7.39025 11.1498 7.74217 11.4004 7.97678 11.4004C8.446 11.4004 9.26714 9.64626 9.85367 9.64626C10.0883 9.64626 10.3229 9.89685 10.5575 10.1474C11.0267 10.5233 11.6133 10.7739 12.0825 11.1498C12.3171 11.2751 12.669 11.4004 12.7863 11.651C12.7863 11.7763 12.7863 11.7763 12.7863 11.9016C12.9036 12.1522 12.7863 12.7786 12.669 13.1545Z" fill="white"/>
  </symbol>
  <symbol id="phone-black" viewBox="0 0 13 15">
    <path d="M12.669 13.1545C12.4344 13.6557 11.9652 13.9063 11.4959 14.1569C10.9094 14.5327 10.4402 14.658 9.85367 14.658C9.03253 14.658 8.21139 14.2822 7.50756 14.0316C6.92103 13.781 6.45181 13.5304 5.86528 13.2798C4.223 12.1522 2.34611 10.1474 1.40767 8.51861C1.05575 7.89214 0.821139 7.39096 0.586528 6.76449C0.351917 5.88743 0 5.13567 0 4.13331C0 3.50684 0.117306 2.88037 0.469222 2.25389C0.703833 1.75272 0.938445 1.25154 1.40767 1.00095C1.75958 1.00095 2.34611 0.875656 2.69803 0.875656C2.81533 0.875656 2.81533 0.875656 2.93264 0.875656C3.16725 1.00095 3.28456 1.37683 3.40186 1.62742C3.63647 2.25389 3.98839 2.75507 4.223 3.38154C4.45761 3.63213 4.69222 3.88272 4.69222 4.13331C4.69222 4.75978 3.04994 5.63684 3.04994 6.13802C3.04994 6.38861 3.28456 6.76449 3.40186 7.01508C4.34031 8.7692 5.51336 10.0221 7.15564 11.0245C7.39025 11.1498 7.74217 11.4004 7.97678 11.4004C8.446 11.4004 9.26714 9.64626 9.85367 9.64626C10.0883 9.64626 10.3229 9.89685 10.5575 10.1474C11.0267 10.5233 11.6133 10.7739 12.0825 11.1498C12.3171 11.2751 12.669 11.4004 12.7863 11.651C12.7863 11.7763 12.7863 11.7763 12.7863 11.9016C12.9036 12.1522 12.7863 12.7786 12.669 13.1545Z" fill="#292929"/>
  </symbol>
  <symbol id="checkmark" viewBox="0 0 10 8">
    <path d="M9.44954 0.551587C8.80734 -0.184046 7.70642 -0.184046 7.06422 0.459633L3.66973 3.86193L2.93578 3.1263C2.29358 2.48262 1.19266 2.48262 0.550461 3.1263H0.458717C-0.183484 3.76998 -0.183484 4.87343 0.458717 5.5171L2.47707 7.54009C2.84404 7.90791 3.30275 7.99986 3.66973 7.99986C4.12844 7.99986 4.49542 7.81595 4.86239 7.54009L9.44954 2.94239C10.0917 2.29871 10.0917 1.19526 9.44954 0.551587Z" fill="#FEDB3F"/>
  </symbol>
</svg>