<svg width="38" height="38" viewBox="0 0 38 38" fill="none" xmlns="http://www.w3.org/2000/svg">
<path d="M18.6903 29.8544H20.839V30.7782C20.839 31.393 21.3374 31.8915 21.9523 31.8915C22.5671 31.8915 23.0655 31.393 23.0655 30.7782V29.8544H31.5436C32.1584 29.8544 32.6568 29.3559 32.6568 28.7411C32.6568 28.1263 32.1584 27.6278 31.5436 27.6278H23.0655V27.1254C23.0655 26.5105 22.5671 26.0121 21.9523 26.0121C21.3374 26.0121 20.839 26.5105 20.839 27.1254V27.6278H18.6903C18.0754 27.6278 17.577 28.1263 17.577 28.7411C17.577 29.3559 18.0754 29.8544 18.6903 29.8544Z" fill="white"/>
<path d="M36.8867 0H13.3471C12.7323 0 12.2338 0.498453 12.2338 1.11328V5.13727C11.4187 5.3845 10.6274 5.70134 9.86783 6.08542L8.35607 4.58657C7.9204 4.15462 7.2174 4.15655 6.78404 4.5908L2.24697 9.13826C2.03805 9.3477 1.921 9.63174 1.92182 9.92772C1.92264 10.2236 2.04124 10.507 2.25135 10.7153L3.64577 12.0974C3.21516 12.8863 2.86165 13.7112 2.58853 14.5639H1.11328C0.498453 14.5639 0 15.0624 0 15.6772V22.1084C0 22.7233 0.498453 23.2217 1.11328 23.2217H2.5886C2.86173 24.0745 3.21523 24.8994 3.64585 25.6882L2.25143 27.0704C2.04131 27.2787 1.92264 27.5621 1.92189 27.8579C1.92108 28.1538 2.03805 28.4379 2.24705 28.6474L6.78411 33.1949C7.00165 33.4128 7.2868 33.5218 7.57224 33.5218C7.85554 33.5218 8.13905 33.4142 8.35614 33.199L9.8679 31.7002C10.6275 32.0842 11.4188 32.4011 12.2339 32.6483V36.6723C12.2339 37.2871 12.7324 37.7856 13.3472 37.7856H36.8867C37.5015 37.7856 38 37.2871 38 36.6723V1.11328C38 0.498453 37.5015 0 36.8867 0ZM12.2338 25.4797C11.4211 24.9353 10.7127 24.2387 10.1431 23.417C9.22146 22.0872 8.73436 20.5229 8.73436 18.8929C8.73436 17.2629 9.22146 15.6986 10.1431 14.3688C10.7127 13.5471 11.4211 12.8505 12.2338 12.3061V25.4797ZM12.2338 9.74915C10.6643 10.5021 9.31913 11.6491 8.31317 13.1005C7.13205 14.8045 6.5078 16.8075 6.5078 18.8929C6.5078 20.9783 7.13205 22.9813 8.31317 24.6853C9.3192 26.1367 10.6643 27.2837 12.2338 28.0367V30.3027C11.5404 30.0504 10.8704 29.7368 10.231 29.3649C9.79591 29.1119 9.24506 29.1824 8.88747 29.5368L7.57647 30.8367L4.61218 27.8656L5.82714 26.6612C6.19771 26.2939 6.26347 25.7184 5.98522 25.277C5.31184 24.2085 4.81427 23.0505 4.50641 21.8351C4.38121 21.3412 3.93671 20.9952 3.4272 20.9952H2.22656V16.7906H3.4272C3.93671 16.7906 4.38121 16.4446 4.50641 15.9507C4.8142 14.7353 5.31184 13.5773 5.98522 12.5088C6.26347 12.0674 6.19771 11.4919 5.82714 11.1246L4.61218 9.92023L7.57647 6.9491L8.88747 8.24904C9.24491 8.60344 9.79569 8.67395 10.231 8.42086C10.8704 8.04902 11.5405 7.73552 12.2338 7.48311V9.74915ZM35.7734 35.5592H14.4604V2.22656H35.7734V35.5592Z" fill="white"/>
<path d="M18.6903 16.583H20.839V17.296C20.839 17.9108 21.3374 18.4093 21.9523 18.4093C22.5671 18.4093 23.0655 17.9108 23.0655 17.296V16.583H31.5436C32.1584 16.583 32.6568 16.0845 32.6568 15.4697C32.6568 14.8549 32.1584 14.3564 31.5436 14.3564H23.0655V13.6433C23.0655 13.0285 22.5671 12.53 21.9523 12.53C21.3374 12.53 20.839 13.0285 20.839 13.6433V14.3564H18.6903C18.0754 14.3564 17.577 14.8549 17.577 15.4697C17.577 16.0845 18.0754 16.583 18.6903 16.583Z" fill="white"/>
<path d="M18.6903 23.2187H27.1682V23.9317C27.1682 24.5466 27.6667 25.045 28.2815 25.045C28.8963 25.045 29.3948 24.5466 29.3948 23.9317V23.2187H31.5436C32.1584 23.2187 32.6568 22.7203 32.6568 22.1054C32.6568 21.4906 32.1584 20.9921 31.5436 20.9921H29.3948V20.2791C29.3948 19.6642 28.8963 19.1658 28.2815 19.1658C27.6667 19.1658 27.1682 19.6642 27.1682 20.2791V20.9921H18.6903C18.0754 20.9921 17.577 21.4906 17.577 22.1054C17.577 22.7203 18.0754 23.2187 18.6903 23.2187Z" fill="white"/>
</svg>
